<?xml version="1.0" encoding="utf-8"?>
<!-- Generator: Adobe Illustrator 19.0.0, SVG Export Plug-In . SVG Version: 6.00 Build 0)  -->
<svg version="1.1" id="Layer_1" xmlns="http://www.w3.org/2000/svg" xmlns:xlink="http://www.w3.org/1999/xlink" x="0px" y="0px" viewBox="0 0 512.001 512.001" style="enable-background:new 0 0 512.001 512.001;" xml:space="preserve">
<g>
	<path style="fill:#C97E67;" d="M443.504,199.529c-4.3,13.847-18.502,17.093-23.606,17.822c-1.191,0.169-2.385-0.178-3.302-0.96   c-3.921-3.352-14.177-13.709-10.423-27.713c3.331-12.422,19.194-30.311,27.727-39.27c2.336-2.453,6.452-1.257,7.119,2.068   C443.454,163.623,447.318,187.248,443.504,199.529z"/>
	<path style="fill:#C97E67;" d="M350.33,257.899v20.322c0,13.105,3.463,25.977,10.037,37.304l6.681,11.513h44.931l-0.988-3.539   c-1.642-5.876-6.394-10.359-12.345-11.641l-14.617-3.151l16.457-50.807L350.33,257.899L350.33,257.899z"/>
</g>
<path style="fill:#7D4F40;" d="M187.559,257.899v20.322c0,13.105,3.463,25.977,10.037,37.304l6.681,11.513h44.931l-0.988-3.539  c-1.642-5.876-6.394-10.359-12.345-11.641l-14.617-3.151l16.457-50.807L187.559,257.899L187.559,257.899z"/>
<path style="fill:#C97E67;" d="M117.029,257.899v20.322c0,13.105,3.463,25.977,10.037,37.304l6.681,11.513h44.931l-0.988-3.539  c-1.642-5.876-6.394-10.359-12.345-11.641l-14.617-3.151l16.457-50.807H117.029z"/>
<g>
	<path style="fill:#B06750;" d="M135.053,278.221v-20.322h-18.024v20.322c0,13.105,3.463,25.977,10.037,37.304l6.681,11.513h18.024   l-6.681-11.513C138.516,304.197,135.053,291.326,135.053,278.221z"/>
	<path style="fill:#B06750;" d="M368.355,278.221v-20.322H350.33v20.322c0,13.105,3.463,25.977,10.037,37.304l6.681,11.513h18.024   l-6.681-11.513C371.818,304.197,368.355,291.326,368.355,278.221z"/>
</g>
<path style="fill:#7D4F40;" d="M307.663,257.899l-9.23,11.515c-8.824,13.801-13.604,34.784-7.03,46.111l6.681,11.513h44.931  l-0.988-3.539c-1.642-5.876-6.394-10.359-12.345-11.641l-0.074-0.071c-5.769-5.52-6.664-14.432-2.109-20.995l22.831-32.892  L307.663,257.899L307.663,257.899z"/>
<path style="fill:#E8C1B5;" d="M504.163,259.668c0,2.612-1.024,5.224-3.156,7.189c-1.797,1.64-4.148,2.56-6.572,2.56H367.95  l-2.1-72.265l27.857,5.392l22.423,4.347c9.634,2.8,18.902,6.781,27.575,11.849l55.62,32.486  C502.502,253.075,504.163,256.366,504.163,259.668z"/>
<path style="fill:#C7917F;" d="M407.803,269.417H367.95l-2.1-72.265l27.857,5.392C400.792,218.353,408.179,241.612,407.803,269.417z  "/>
<g>
	<path style="fill:#C97E67;" d="M220.473,381.388H74.192c-36.588,0-66.355-29.842-66.355-66.523s29.767-66.524,66.355-66.524h61.645   c5.771,0,10.449,4.689,10.449,10.475s-4.678,10.475-10.449,10.475H74.192c-25.065,0-45.457,20.443-45.457,45.572   c0,25.129,20.392,45.573,45.457,45.573h146.282c5.771,0,10.449,4.69,10.449,10.475S226.244,381.388,220.473,381.388z"/>
	<path style="fill:#C97E67;" d="M387.324,269.414H110.426c0-76.66,61.983-138.801,138.449-138.801S387.324,192.754,387.324,269.414z   "/>
</g>
<g>
	<path style="fill:#B06750;" d="M266.738,145.712c26.242,0,50.776,6.523,71.686,17.852c-24.142-20.548-55.398-32.951-89.55-32.951   c-76.466,0-138.449,62.141-138.449,138.801h17.864C128.289,201.093,190.273,145.712,266.738,145.712z"/>
	<path style="fill:#B06750;" d="M411.594,189.851c2.584,14.269-8.504,23.74-12.692,26.754c-0.977,0.703-2.196,0.95-3.37,0.681   c-5.024-1.15-18.898-5.569-22.037-19.725c-2.785-12.555,3.013-35.776,6.44-47.678c0.938-3.259,5.139-4.11,7.265-1.471   C394.965,158.049,409.301,177.195,411.594,189.851z"/>
</g>
<circle cx="439.38" cy="238.979" r="7.837"/>
<path d="M503.278,244.459l-55.619-32.485c-0.464-0.271-0.937-0.532-1.406-0.797c2.08-2.79,3.679-5.914,4.74-9.318  c4.078-13.141,1.006-35.487-2.288-51.919c-0.887-4.425-4.127-7.949-8.454-9.197c-4.321-1.246-8.93,0.009-12.017,3.261  c-5.768,6.051-12.838,13.99-18.704,22.122c-4.92-8.031-10.899-16.018-16.228-22.63c-2.825-3.505-7.318-5.13-11.726-4.24  c-4.411,0.89-7.925,4.133-9.172,8.462c-2.856,9.923-5.806,22.087-6.959,33.105c-14.748-19.515-34.412-35.413-57.689-45.682  c-3.959-1.747-8.586,0.047-10.333,4.006c-1.747,3.96,0.047,8.586,4.006,10.333c3.042,1.342,6.007,2.8,8.907,4.352v107.747h-52.157  v-122.79c2.629,0.185,5.247,0.439,7.838,0.779c4.29,0.564,8.228-2.458,8.791-6.749c0.564-4.291-2.459-8.226-6.749-8.791  c-6.315-0.83-12.771-1.251-19.183-1.251c-70.792,0-129.995,50.67-143.425,117.729H74.188c-0.403,0-0.817,0.001-1.22,0.013  c-20.949,0.337-39.849,9.549-53.169,23.985c-0.214,0.172-0.422,0.357-0.621,0.556c-0.419,0.418-0.775,0.874-1.079,1.353  C6.844,279.469,0,296.426,0,314.86c0,22.882,10.305,44.157,28.268,58.367c0.018,0.015,0.037,0.027,0.055,0.042  c0.049,0.039,0.098,0.076,0.148,0.113c13.174,10.363,28.975,15.844,45.716,15.844h146.286c10.082,0,18.286-8.217,18.286-18.317  c0-10.095-8.203-18.307-18.286-18.307H187.63c-0.024,0-0.047-0.003-0.071-0.003s-0.047,0.003-0.071,0.003h-45.437  c-0.024,0-0.047-0.003-0.071-0.003c-4.328,0-7.837,3.509-7.837,7.837v13.117h-29.914v-13.117c0-4.328-3.509-7.837-7.837-7.837  c-0.024,0-0.047,0.003-0.071,0.003H74.188c-20.39,0-37.031-16.365-37.59-36.69c0.046-0.344,0.078-0.691,0.078-1.047  c0-0.363-0.033-0.717-0.082-1.067c0.241-8.536,3.373-16.773,8.896-23.301c6.977-8.249,17.12-13.119,27.889-13.361  c0.266-0.008,0.542-0.007,0.807-0.007h34.897c0.036,0.006,0.071,0.01,0.107,0.017v1.08c0,14.482,3.839,28.743,11.099,41.234  l6.677,11.515c1.402,2.418,3.985,3.906,6.779,3.906h44.931c2.452,0,4.763-1.147,6.244-3.102c1.482-1.955,1.963-4.489,1.302-6.85  l-0.99-3.532c-2.43-8.717-9.422-15.306-18.236-17.196l-6.145-1.327l8.301-25.623h10.569v0.975c0,14.482,3.839,28.743,11.099,41.234  l6.677,11.515c1.402,2.418,3.985,3.906,6.779,3.906h44.931c2.452,0,4.763-1.147,6.244-3.102s1.963-4.489,1.302-6.85l-0.99-3.532  c-2.43-8.717-9.422-15.306-18.236-17.196l-6.145-1.327l8.301-25.623h46.021c-5.663,14.181-7.581,31.012-1.081,42.213l6.687,11.515  c1.402,2.415,3.984,3.901,6.777,3.901h44.931c2.452,0,4.763-1.147,6.244-3.101c1.482-1.954,1.963-4.488,1.302-6.849l-0.991-3.534  c-2.181-7.821-8.033-13.93-15.588-16.469c-2.038-2.838-2.115-6.683-0.046-9.663l8.69-12.521c0.713,12.91,4.457,25.52,10.957,36.722  l6.687,11.515c1.402,2.415,3.984,3.901,6.777,3.901h44.931c2.452,0,4.763-1.147,6.244-3.101c1.482-1.954,1.963-4.489,1.302-6.849  l-0.99-3.534c-2.43-8.717-9.423-15.306-18.236-17.195l-6.145-1.327l8.3-25.62h29.083c4.328,0,7.837-3.509,7.837-7.837  c0-4.328-3.509-7.837-7.837-7.837H396.87c-0.021,0-0.042,0-0.063,0h-1.88c-0.706-13.275-3.187-26.205-7.274-38.496  c1.883,0.711,3.915,1.335,6.129,1.842c0.886,0.203,1.785,0.303,2.678,0.303c2.496,0,4.957-0.778,7.018-2.263  c3.898-2.806,6.888-5.779,9.177-8.767l1.624,0.315c5.184,1.528,10.259,3.418,15.098,5.624c3.548,1.612,7.038,3.419,10.377,5.369  l55.629,32.491c0.853,0.496,0.945,1.333,0.945,1.671c0,0.561-0.212,1.041-0.602,1.4c-0.356,0.325-0.827,0.512-1.289,0.512h-16.919  c-4.328,0-7.837,3.509-7.837,7.837c0,4.328,3.509,7.837,7.837,7.837h16.917c4.389,0,8.6-1.636,11.884-4.634  c3.663-3.376,5.682-7.976,5.682-12.952C512,253.419,508.654,247.588,503.278,244.459z M326.008,163.714  c31.093,22.836,50.907,58.613,53.246,97.864h-53.246V163.714z M182.857,261.577V156.449c17.664-10.419,37.969-16.796,59.647-17.845  v122.973H182.857z M167.184,167.307v94.27h-48.69C120.744,223.525,139.279,189.799,167.184,167.307z M102.806,261.455H80.98v-5.277  h22.211C103.034,257.929,102.902,259.687,102.806,261.455z M16.216,307.027c1.212-8.961,4.455-17.312,9.27-24.549l3.741,3.75  c-4.006,6.311-6.639,13.405-7.737,20.799H16.216z M16.212,322.701h5.265c1.684,11.425,6.992,21.68,14.71,29.557l-3.57,3.855  C23.614,347.023,17.895,335.353,16.212,322.701z M223.086,370.908c0,1.458-1.172,2.644-2.612,2.644h-25.078v-5.277h25.078  C221.913,368.275,223.086,369.456,223.086,370.908z M149.817,368.275h29.905v5.277h-29.905V368.275z M88.555,368.275v5.277H74.188  c-10.383,0-20.304-2.686-29.127-7.811l3.673-3.965c7.567,4.142,16.241,6.498,25.453,6.498h14.368V368.275z M39.508,274.343  l-3.66-3.67c8.167-7.148,18.305-12.074,29.459-13.799v5.343C55.784,263.836,46.856,268.025,39.508,274.343z M143.935,312.616  c1.105,1.919,2.972,3.282,5.138,3.749l13.16,2.841h-23.972l-4.417-7.616c-5.875-10.109-8.98-21.646-8.98-33.365v-0.975h27.813  l-9.407,29.039C142.588,308.398,142.829,310.696,143.935,312.616z M214.465,312.616c1.105,1.919,2.972,3.282,5.138,3.749  l13.16,2.841h-23.972l-4.417-7.616c-5.875-10.109-8.98-21.646-8.98-33.365v-0.975h27.813l-9.407,29.039  C213.118,308.398,213.36,310.696,214.465,312.616z M302.599,319.206l-4.42-7.611c-4.003-6.898-1.731-22.149,4.752-34.344h24.433  l-6.299,9.075c-6.808,9.804-5.488,22.896,3.07,31.066c0.801,0.805,1.765,1.421,2.82,1.814L302.599,319.206L302.599,319.206z   M377.24,312.616c1.105,1.919,2.972,3.282,5.138,3.749l13.16,2.841h-23.975l-4.42-7.611c-5.87-10.116-8.973-21.656-8.973-33.37  v-0.975h9.725c0.019,0,0.037,0.003,0.055,0.003h18.032l-9.406,29.037C375.893,308.398,376.134,310.696,377.24,312.616z   M395.656,209.227c-4.673-1.351-12.627-4.866-14.51-13.361c-1.508-6.799,0.137-20.288,4.414-36.843  c10.348,13.59,17.083,25.375,18.323,32.226c0.51,2.816,0.196,5.386-0.576,7.684c-0.101,0.072-0.199,0.147-0.296,0.224  c-0.09,0.071-0.178,0.144-0.263,0.218c-0.107,0.092-0.21,0.186-0.31,0.282c-0.084,0.08-0.165,0.163-0.245,0.248  c-0.092,0.096-0.181,0.194-0.268,0.295c-0.083,0.096-0.161,0.195-0.239,0.296c-0.074,0.095-0.146,0.191-0.215,0.29  c-0.079,0.113-0.156,0.23-0.23,0.347c-0.059,0.094-0.116,0.188-0.17,0.283c-0.072,0.125-0.139,0.254-0.204,0.385  c-0.049,0.098-0.095,0.196-0.14,0.296c-0.057,0.129-0.112,0.259-0.162,0.392c-0.044,0.113-0.084,0.227-0.121,0.342  c-0.04,0.121-0.078,0.243-0.113,0.368c-0.038,0.136-0.07,0.273-0.1,0.41c-0.015,0.069-0.037,0.135-0.05,0.204  c-0.008,0.044-0.01,0.088-0.019,0.132c-0.026,0.148-0.045,0.297-0.063,0.446c-0.013,0.11-0.026,0.219-0.034,0.329  c-0.002,0.027-0.006,0.053-0.008,0.08C398.599,206.649,396.992,208.145,395.656,209.227z M419.305,188.455L419.305,188.455  c-0.355-1.959-0.937-4.023-1.697-6.154c4.478-7.593,11.397-15.908,17.053-22.181c2.9,16.853,3.428,30.435,1.364,37.086  c-0.843,2.708-2.295,4.962-4.373,6.837c-4.048-1.671-8.22-3.139-12.453-4.403C420.127,194.583,419.67,190.471,419.305,188.455z"/>
<g>
</g>
<g>
</g>
<g>
</g>
<g>
</g>
<g>
</g>
<g>
</g>
<g>
</g>
<g>
</g>
<g>
</g>
<g>
</g>
<g>
</g>
<g>
</g>
<g>
</g>
<g>
</g>
<g>
</g>
</svg>
