<?xml version="1.0" encoding="utf-8"?>
<!-- Generator: Adobe Illustrator 19.0.0, SVG Export Plug-In . SVG Version: 6.00 Build 0)  -->
<svg version="1.1" id="Layer_1" xmlns="http://www.w3.org/2000/svg" xmlns:xlink="http://www.w3.org/1999/xlink" x="0px" y="0px" viewBox="0 0 512.001 512.001" style="enable-background:new 0 0 512.001 512.001;" xml:space="preserve">
<path style="fill:#FBD476;" d="M282.069,134.221h55.807c0,0-18.614-61.738-79.817-68.362c-2.597-0.281-4.911,1.651-5.151,4.255  C251.488,85.558,249.59,134.221,282.069,134.221z"/>
<path style="fill:#CCA75E;" d="M273.806,70.113c0.034-0.374,0.122-0.728,0.237-1.07c-4.973-1.475-10.293-2.568-15.984-3.185  c-2.597-0.281-4.911,1.651-5.151,4.255c-1.42,15.445-3.318,64.108,29.161,64.108h20.898  C270.488,134.221,272.386,85.558,273.806,70.113z"/>
<path style="fill:#FBD476;" d="M282.069,377.784h55.807c0,0-18.614,61.738-79.817,68.362c-2.597,0.281-4.911-1.651-5.151-4.255  C251.488,426.447,249.59,377.784,282.069,377.784z"/>
<path style="fill:#CCA75E;" d="M273.806,441.892c-1.42-15.445-3.318-64.108,29.161-64.108h-20.898  c-32.479,0-30.581,48.663-29.161,64.108c0.239,2.604,2.554,4.536,5.151,4.255c5.69-0.616,11.011-1.71,15.984-3.185  C273.928,442.62,273.84,442.266,273.806,441.892z"/>
<path style="fill:#7FD3E3;" d="M93.443,255.356c0,0-18.614,61.745-79.816,68.369c-2.592,0.281-4.903-1.656-5.149-4.251  c-1.419-15.454-3.32-64.117,29.158-64.117c-32.478,0-30.578-48.663-29.158-64.106c0.247-2.607,2.557-4.533,5.149-4.251  C74.829,193.622,93.443,255.356,93.443,255.356z"/>
<path style="fill:#349FB5;" d="M43.234,255.171c-0.001-0.029-0.003-0.059-0.004-0.088c-0.118-2.826-1.219-5.486-3.124-7.578  c-13.117-14.402-11.794-44.67-10.729-56.256c0.036-0.372,0.122-0.726,0.237-1.067c-4.974-1.475-10.295-2.568-15.986-3.185  c-2.592-0.282-4.903,1.644-5.149,4.251c-1.42,15.445-3.32,64.107,29.158,64.107c-32.478,0-30.578,48.663-29.158,64.117  c0.247,2.596,2.557,4.533,5.149,4.251c5.692-0.615,11.013-1.709,15.988-3.185c-0.115-0.341-0.203-0.694-0.238-1.066  c-1.071-11.657-2.398-42.186,10.947-56.492C42.288,260.874,43.382,258.047,43.234,255.171z"/>
<path style="fill:#7FD3E3;" d="M504.169,255.356c0,28.841-19.541,58.48-51.936,82.425c-40.067,29.617-99.778,50.53-166.47,50.53  c-110.679,0-202.13-111.941-216.455-130.394c-1.172-1.51-1.172-3.612,0-5.122c14.325-18.452,105.776-130.382,216.455-130.382  c25.898,0,50.752,3.159,73.799,8.749C443.87,151.617,504.169,204.696,504.169,255.356z"/>
<path style="fill:#349FB5;" d="M95.231,257.917c-1.172-1.51-1.172-3.612,0-5.122c13.854-17.847,99.854-123.124,205.616-130.021  c-4.984-0.237-10.013-0.362-15.083-0.362c-110.679,0-202.13,111.931-216.455,130.382c-1.172,1.51-1.172,3.612,0,5.122  c14.323,18.454,105.776,130.395,216.455,130.395c5.045,0,10.045-0.134,15.004-0.369C195.041,380.998,109.081,275.759,95.231,257.917  z"/>
<path style="fill:#FBD476;" d="M358.258,268.445c0.331-1.458-0.026-2.976-0.98-4.125c-5.632-6.789-28.606-29.587-70.334-10.169  c-37.141,17.284-61.554,28.445-70.976,32.736c-2.513,1.144-3.536,4.149-2.283,6.613c6.543,12.871,29.323,46.985,80.399,28.627  C346.54,303.27,356.439,276.44,358.258,268.445z"/>
<path style="fill:#CCA75E;" d="M313.756,313.045c-52.289,17.335-76.824-18.262-83.961-31.633c-0.124-0.233-0.208-0.473-0.295-0.713  c-5.986,2.744-10.527,4.817-13.534,6.186c-2.513,1.144-3.536,4.149-2.283,6.613c6.543,12.87,29.323,46.985,80.399,28.626  c9.219-3.313,17.119-6.873,23.895-10.535C316.6,312.082,315.196,312.568,313.756,313.045z"/>
<path style="fill:#FF5845;" d="M504.169,255.356c0,28.841-19.541,58.48-51.936,82.425c-79.241-82.671-92.764-161.879-92.671-206.619  C443.87,151.617,504.169,204.696,504.169,255.356z"/>
<path style="fill:#B53C2F;" d="M380.923,137.201c-6.926-2.241-14.051-4.266-21.361-6.04c-0.094,44.74,13.43,123.948,92.671,206.619  c4.296-3.174,8.357-6.452,12.185-9.812C396.468,252.469,382.015,180.917,380.923,137.201z"/>
<ellipse style="fill:#F2E5CB;" cx="431.862" cy="223.914" rx="22.545" ry="22.572"/>
<path d="M511.953,252.676c-0.104-2.788-0.38-5.588-0.808-8.394c-0.137-0.897-0.29-1.793-0.459-2.691  c-0.379-2.012-0.838-4.027-1.379-6.043c-0.215-0.799-0.444-1.599-0.684-2.398c-0.07-0.232-0.132-0.463-0.204-0.695  c-3.423-11.053-9.254-22.066-17.299-32.695c-0.001-0.001-0.001-0.002-0.002-0.003c-0.258-0.342-0.529-0.68-0.792-1.021  c-6.037-7.816-13.266-15.419-21.629-22.664c-0.409-0.354-0.844-0.658-1.298-0.913c-3.176-1.787-7.278-1.158-9.757,1.705  c-2.833,3.272-2.479,8.22,0.793,11.054c3.444,2.983,6.662,6.025,9.663,9.106c18.295,18.786,28.237,39.161,28.237,58.328  c0,0.773-0.018,1.547-0.05,2.325c-0.01,0.258-0.032,0.517-0.047,0.774c-0.029,0.52-0.057,1.04-0.1,1.561  c-0.026,0.312-0.063,0.626-0.094,0.937c-0.047,0.468-0.092,0.937-0.15,1.407c-0.042,0.336-0.093,0.675-0.141,1.013  c-0.063,0.447-0.125,0.893-0.199,1.342c-0.057,0.351-0.123,0.702-0.187,1.054c-0.078,0.436-0.158,0.87-0.247,1.307  c-0.073,0.36-0.154,0.721-0.234,1.081c-0.095,0.429-0.191,0.858-0.296,1.287c-0.089,0.366-0.183,0.731-0.278,1.097  c-0.111,0.426-0.225,0.853-0.345,1.279c-0.103,0.369-0.212,0.739-0.323,1.109c-0.126,0.423-0.257,0.847-0.393,1.272  c-0.119,0.371-0.24,0.743-0.366,1.115c-0.142,0.422-0.29,0.845-0.442,1.267c-0.134,0.373-0.269,0.747-0.41,1.121  c-0.159,0.422-0.324,0.844-0.491,1.266c-0.147,0.373-0.295,0.746-0.449,1.119c-0.176,0.424-0.358,0.848-0.542,1.272  c-0.161,0.372-0.321,0.744-0.489,1.116c-0.192,0.425-0.393,0.851-0.594,1.276c-0.174,0.37-0.346,0.74-0.527,1.11  c-0.211,0.432-0.433,0.863-0.652,1.295c-0.185,0.363-0.365,0.724-0.555,1.087c-0.235,0.447-0.483,0.893-0.728,1.341  c-0.189,0.346-0.373,0.692-0.567,1.037c-0.277,0.491-0.567,0.98-0.856,1.471c-0.177,0.301-0.347,0.602-0.528,0.903  c-0.467,0.776-0.949,1.552-1.444,2.326c-0.199,0.311-0.41,0.622-0.613,0.933c-0.311,0.475-0.619,0.95-0.939,1.423  c-0.24,0.355-0.492,0.708-0.739,1.063c-0.299,0.429-0.595,0.86-0.902,1.288c-0.261,0.366-0.533,0.729-0.801,1.094  c-0.305,0.416-0.609,0.832-0.923,1.247c-0.28,0.371-0.569,0.741-0.856,1.111c-0.315,0.406-0.628,0.813-0.95,1.218  c-0.297,0.373-0.6,0.745-0.903,1.118c-0.327,0.401-0.653,0.802-0.987,1.203c-0.31,0.372-0.627,0.743-0.945,1.115  c-0.34,0.397-0.68,0.794-1.026,1.191c-0.326,0.372-0.656,0.744-0.988,1.115c-0.351,0.392-0.704,0.784-1.063,1.176  c-0.34,0.371-0.682,0.741-1.028,1.111c-0.366,0.391-0.735,0.781-1.108,1.169c-0.351,0.367-0.704,0.734-1.062,1.099  c-0.381,0.39-0.767,0.778-1.155,1.166c-0.362,0.363-0.725,0.724-1.093,1.086c-0.397,0.39-0.8,0.777-1.205,1.164  c-0.371,0.356-0.742,0.713-1.12,1.067c-0.416,0.392-0.84,0.781-1.264,1.17c-0.378,0.348-0.753,0.696-1.138,1.042  c-0.441,0.397-0.89,0.793-1.339,1.188c-0.379,0.334-0.754,0.67-1.139,1.002c-0.475,0.412-0.961,0.821-1.444,1.23  c-0.37,0.313-0.735,0.628-1.11,0.939c-0.531,0.442-1.073,0.881-1.614,1.32c-0.341,0.277-0.675,0.555-1.019,0.83  c-0.021,0.017-0.043,0.033-0.064,0.05c-31.907-34.42-55.3-71.309-69.574-109.734c-11.239-30.254-14.982-56.849-15.867-76.152  c0.109,0.03,0.215,0.063,0.323,0.093c2.428,0.682,4.835,1.395,7.223,2.134c0.274,0.085,0.55,0.166,0.823,0.252  c2.37,0.741,4.716,1.515,7.044,2.311c0.408,0.139,0.815,0.278,1.22,0.419c2.295,0.797,4.57,1.619,6.824,2.47  c0.355,0.134,0.708,0.272,1.064,0.408c2.335,0.893,4.654,1.808,6.943,2.759c0.064,0.026,0.126,0.054,0.19,0.08  c2.271,0.945,4.513,1.924,6.738,2.924c0.293,0.132,0.587,0.26,0.879,0.393c2.158,0.981,4.29,1.993,6.403,3.026  c0.385,0.189,0.769,0.377,1.152,0.567c2.092,1.038,4.164,2.098,6.21,3.187c0.317,0.169,0.63,0.342,0.946,0.511  c2.134,1.148,4.25,2.317,6.331,3.52c3.746,2.168,8.54,0.887,10.706-2.86c2.167-3.747,0.886-8.541-2.86-10.707  c-4.172-2.414-8.442-4.721-12.804-6.92c-2.908-1.466-5.858-2.885-8.847-4.255c-16.443-7.537-34.092-13.61-52.723-18.132  c-7.008-1.699-14.093-3.151-21.232-4.371c-9.28-19.268-33.054-55.883-81.261-61.102c-3.348-0.367-6.628,0.611-9.241,2.748  c-2.63,2.149-4.251,5.195-4.563,8.584c-2.152,23.632,0.922,39.129,4.761,48.911c-40.561,8.267-82.654,30.169-123.561,64.573  c-16.584,13.947-30.487,27.804-41.152,39.332c-1.908-2.706-3.909-5.321-6.001-7.818c-2.78-3.32-7.722-3.755-11.038-0.977  c-3.319,2.779-3.755,7.723-0.977,11.039c2.579,3.08,4.998,6.374,7.252,9.814c-8.23,9.57-12.883,15.848-13.315,16.436  c-2.031,2.763-2.031,6.524,0,9.287c0.42,0.572,5.069,6.851,13.326,16.451c-10.785,16.501-29.063,34.776-58.338,39.071  c-0.76-11.211-1.136-35.995,8.97-47.073c3.271-3.586,7.284-5.255,12.633-5.255c4.328,0,7.836-3.508,7.836-7.837  s-3.508-7.837-7.836-7.837c-5.349,0-9.363-1.671-12.634-5.255c-10.105-11.08-9.729-35.851-8.969-47.061  c7.337,1.081,14.365,3.105,20.935,6.029c3.953,1.761,8.586-0.019,10.344-3.973c1.76-3.954-0.019-8.587-3.972-10.347  c-9.02-4.016-18.729-6.608-28.856-7.706c-3.35-0.365-6.632,0.612-9.245,2.75c-2.627,2.148-4.245,5.195-4.556,8.577  c-3.515,38.193,6.474,55.423,12.74,62.294c0.822,0.902,1.676,1.745,2.562,2.53c-0.885,0.785-1.74,1.628-2.561,2.529  c-6.266,6.87-16.254,24.1-12.741,62.306c0.312,3.38,1.932,6.427,4.562,8.577c2.256,1.844,5.008,2.823,7.866,2.823  c0.453,0,0.911-0.025,1.368-0.074c35.066-3.792,57.247-23.902,70.654-43.012c9.84,10.636,22.436,23.253,37.353,36.101  c1.481,1.276,3.3,1.9,5.111,1.9c2.202,0,4.392-0.924,5.94-2.723c2.824-3.28,2.456-8.229-0.823-11.052  c-27.841-23.979-47.689-47.631-55.442-57.372c8.113-10.191,29.46-35.6,59.365-60.704c63.408-53.231,116.08-64.405,149.101-64.405  c16.107,0,32.124,1.258,47.859,3.733c0.032,0.004,0.064,0.01,0.096,0.015c6.071,0.957,12.099,2.096,18.075,3.418  c0.685,28.258,6.392,57.011,16.997,85.563c14.808,39.861,38.86,78.037,71.541,113.592c-41.499,27.983-97.259,43.908-154.569,43.908  c-7.233,0-14.53-0.504-21.884-1.503c-0.166-0.026-0.332-0.053-0.501-0.068c-32.187-4.469-65.458-18.472-99.206-41.796  c-3.56-2.461-8.441-1.57-10.9,1.992c-2.461,3.56-1.569,8.442,1.992,10.902c32.043,22.146,63.877,36.391,95.041,42.582  c-4.14,9.899-7.429,25.67-5.2,50.027c0.312,3.38,1.932,6.426,4.563,8.576c2.256,1.844,5.007,2.823,7.865,2.823  c0.455,0,0.911-0.025,1.37-0.075c49.122-5.319,72.783-42.796,81.932-62.502c43.729-7.54,84.311-23.895,116.039-47.35  c35.537-26.271,55.108-57.781,55.108-88.728C512.006,254.463,511.987,253.571,511.953,252.676z M265.836,115.75  c-6.347-12.429-5.988-32.152-5.354-41.684c31.734,4.676,50.493,26.041,60.436,42.416c-11.621-1.263-23.352-1.908-35.128-1.908  C279.199,114.573,272.543,114.971,265.836,115.75z M260.481,437.94c-0.665-9.901-1.029-30.576,5.973-42.866  c6.479,0.712,12.926,1.074,19.336,1.074c12.088,0,24.118-0.679,35.983-2.002C311.953,410.959,293.095,433.146,260.481,437.94z"/>
<path d="M266.106,335.324c9.028,0,19.216-1.712,30.651-5.822c54.717-19.669,66.593-48.036,69.16-59.319c0-0.001,0-0.002,0.001-0.004  c0.876-3.862-0.068-7.821-2.591-10.862c-3.701-4.463-11.877-12.644-25.049-17.298c-16.523-5.837-34.899-4.148-54.614,5.027  c-37.371,17.393-62.039,28.669-70.91,32.709c-3.121,1.421-5.561,4.094-6.693,7.331c-1.139,3.253-0.893,6.886,0.672,9.966  C211.973,307.358,229.595,335.324,266.106,335.324z M290.274,261.255c15.867-7.384,30.26-8.886,42.782-4.459  c8.713,3.078,14.451,8.352,17.199,11.367c-2.425,8.289-13.059,30.144-58.8,46.587c-14.418,5.183-49.487,13.13-69.288-22.064  C232.89,287.794,256.365,277.037,290.274,261.255z"/>
<path d="M401.497,223.915c0,16.767,13.628,30.409,30.377,30.409c16.75,0,30.378-13.641,30.378-30.409s-13.628-30.409-30.378-30.409  S401.497,207.148,401.497,223.915z M446.581,223.915c0,8.125-6.597,14.735-14.706,14.735c-8.108,0-14.706-6.61-14.706-14.735  c0-8.124,6.598-14.735,14.706-14.735C439.983,209.181,446.581,215.791,446.581,223.915z"/>
<circle cx="435.394" cy="223.955" r="7.836"/>
<g>
</g>
<g>
</g>
<g>
</g>
<g>
</g>
<g>
</g>
<g>
</g>
<g>
</g>
<g>
</g>
<g>
</g>
<g>
</g>
<g>
</g>
<g>
</g>
<g>
</g>
<g>
</g>
<g>
</g>
</svg>
