<?xml version="1.0" encoding="utf-8"?>
<!-- Generator: Adobe Illustrator 19.0.0, SVG Export Plug-In . SVG Version: 6.00 Build 0)  -->
<svg version="1.1" id="Layer_1" xmlns="http://www.w3.org/2000/svg" xmlns:xlink="http://www.w3.org/1999/xlink" x="0px" y="0px" viewBox="0 0 512 512" style="enable-background:new 0 0 512 512;" xml:space="preserve">
<path style="fill:#FBD476;" d="M317.76,90.836c0,0,56.005-6.136,107.864,0.77c4.647,0.619,7.295-5.145,3.779-8.243  c-16.459-14.503-49.097-38.716-83.625-38.801C309.985,44.473,299.386,92.291,317.76,90.836z"/>
<path style="fill:#3F5666;" d="M224.042,503.547v0.616h-13.307C215.219,504.163,219.666,503.962,224.042,503.547z"/>
<path style="fill:#F2E5CB;" d="M353.508,361.456c0,70.47-51.089,128.986-118.285,140.596c-2.979,0.522-5.992,0.937-9.043,1.27  c-0.713,0.083-1.437,0.154-2.16,0.226c-4.379,0.415-8.829,0.616-13.315,0.616H90.712c-5.376,0-9.731-4.352-9.731-9.725  c0-14.041,5.697-26.755,14.894-35.947c9.21-9.191,21.92-14.885,35.971-14.885h31.105V185.186  c0-85.508,45.05-177.349,113.288-177.349c45.987,0,66.636,25.297,66.636,56.511c0,19.343-9.72,36.397-24.543,46.596  c-0.011,0.013-0.024,0.013-0.024,0.013C357.238,222.496,353.508,361.456,353.508,361.456z"/>
<path style="fill:#3F5666;" d="M342.874,64.348c0,19.343-9.72,36.397-24.543,46.596c-0.011,0.013-0.024,0.013-0.024,0.013  s-57.948,35.448-51.565,138.599c8.307,134.231,0.545,189.154-31.52,252.495c-2.979,0.522-5.992,0.937-9.043,1.27  c-0.713,0.083-1.437,0.154-2.16,0.226c-4.379,0.415-8.829,0.616-13.315,0.616H90.712c-5.376,0-9.731-4.352-9.731-9.725  c0-14.041,5.697-26.755,14.894-35.947c9.21-9.191,21.92-14.885,35.971-14.885h31.105V185.186  c0-85.508,45.05-177.349,113.288-177.349C322.224,7.837,342.874,33.134,342.874,64.348z"/>
<g>
	<path style="fill:#2F3F4A;" d="M101.975,494.438c0-14.041,5.697-26.755,14.894-35.947c5.516-5.506,12.294-11.194,19.858-14.885   h-4.882c-14.052,0-26.762,5.694-35.971,14.885c-9.197,9.191-14.894,21.904-14.894,35.947c0,5.373,4.355,9.725,9.731,9.725h20.994   C106.33,504.163,101.975,499.81,101.975,494.438z"/>
	<path style="fill:#2F3F4A;" d="M169.469,439.554c7.995,0,14.475-6.48,14.475-14.475V185.186   c0-81.521,40.946-168.797,103.895-176.759c-3.675-0.382-7.534-0.59-11.602-0.59c-68.238,0-113.288,91.841-113.288,177.349v254.368   H169.469z"/>
</g>
<path style="fill:#3F5666;" d="M266.743,222.496v108.997c0,35.43-28.742,64.154-64.196,64.154l0,0c-1.905,0-3.449-1.543-3.449-3.447  V222.496H266.743z"/>
<path style="fill:#2F3F4A;" d="M222.179,392.201V237.488c0-8.28-6.712-14.991-14.991-14.991h-8.089v169.702  c0,1.905,1.544,3.449,3.449,3.449l0,0c6.863,0,13.468-1.088,19.668-3.079C222.202,392.446,222.179,392.327,222.179,392.201z"/>
<path style="fill:#FBD476;" d="M387.828,504.163H228.766c-2.621,0-4.746-2.124-4.746-4.746v-17.176  c0-6.553,5.311-11.864,11.864-11.864h127.998c15.847,0,28.693,12.846,28.693,28.693v0.348  C392.574,502.039,390.45,504.163,387.828,504.163z"/>
<path style="fill:#CCA75E;" d="M246.293,499.417v-17.176c0-6.553,5.311-11.864,11.864-11.864h-22.272  c-6.553,0-11.864,5.311-11.864,11.864v17.177c0,2.621,2.124,4.746,4.746,4.746h22.272  C248.417,504.163,246.293,502.039,246.293,499.417z"/>
<path d="M434.579,77.478c-7.03-6.185-14.32-11.837-21.669-16.797c-3.588-2.422-8.46-1.479-10.879,2.111  c-2.422,3.588-1.476,8.458,2.111,10.879c4.089,2.761,8.163,5.756,12.18,8.955c-24.27-2.477-48.526-2.461-67.791-1.706  c1.427-5.347,2.181-10.912,2.181-16.575c0-3.924-0.313-7.881-0.968-11.8c6.324,0.389,12.935,1.643,19.717,3.772  c0.782,0.245,1.572,0.362,2.349,0.362c3.333,0,6.424-2.144,7.475-5.492c1.296-4.129-1.001-8.527-5.13-9.824  c-9.729-3.053-19.269-4.612-28.332-4.633c-0.276-0.001-0.556,0.008-0.834,0.013C335.779,16.296,314.679,0,276.241,0  c-34.449,0-66.053,21.476-88.99,60.47c-20.423,34.721-32.135,80.178-32.135,124.717v250.587h-23.271  c-15.671,0-30.414,6.097-41.518,17.175c-11.081,11.082-17.184,25.815-17.184,41.486c0,9.685,7.88,17.565,17.565,17.565h119.997  c0.008,0,0.017,0,0.025,0c0.002,0,0.004,0,0.005,0h13.307c0.719,0,1.413-0.106,2.074-0.286c0.856,0.184,1.741,0.286,2.65,0.286  h159.064c6.938,0,12.582-5.645,12.582-12.583v-0.347c0-20.142-16.387-36.53-36.53-36.53H322.33  c24.966-27.508,38.989-63.356,39.013-100.988c0.072-3.098,1.375-66.348-9.276-140.174c-0.619-4.284-4.594-7.263-8.875-6.637  c-4.284,0.618-7.256,4.592-6.637,8.875c10.667,73.944,9.133,137.002,9.118,137.631c-0.002,0.069-0.003,0.14-0.003,0.209  c0,38.781-16.599,75.456-45.63,101.084h-39.494c17.105-50.392,20.608-106.713,14.034-213.203v-26.841  c0-0.415-0.042-0.82-0.105-1.218c2.076-35.275,12.431-59.601,21.776-74.711c6.466-10.455,13.179-17.795,18.184-22.465  c5.998,18.721,11.231,39.247,15.589,61.198c0.741,3.729,4.015,6.312,7.679,6.311c0.506,0,1.02-0.049,1.535-0.152  c4.245-0.843,7.003-4.967,6.161-9.213c-4.905-24.706-10.904-47.706-17.848-68.469c5.756-4.802,10.569-10.523,14.293-16.865  c22.072-1.143,53.052-1.493,82.747,2.462c0.568,0.075,1.134,0.112,1.694,0.112c4.896,0,9.357-2.819,11.432-7.38  C440.021,87.042,438.763,81.166,434.579,77.478z M384.558,496.327H231.856v-14.085c0-2.22,1.807-4.027,4.027-4.027h13.662  c0.043-0.001,0.086,0.001,0.129,0h53.179c0.039,0,0.077,0.006,0.116,0.006c0.048,0,0.095-0.005,0.143-0.006h60.769  C374.453,478.214,383.21,486.118,384.558,496.327z M283.498,137.4c-13.082,20.789-27.953,57.151-24.592,112.363v81.731  c0,29.579-22.937,53.904-51.972,56.147v-73.126c0-4.329-3.508-7.837-7.837-7.837c-4.329,0-7.837,3.508-7.837,7.837v77.687  c0,6.221,5.064,11.283,11.286,11.283c24.014,0,45.306-11.817,58.401-29.924c-2.157,35.662-7.649,63.048-17.009,88.981h-8.055  c-10.863,0-19.702,8.838-19.702,19.701v13.971c-1.809,0.071-3.635,0.115-5.478,0.115H90.707c-1.043,0-1.891-0.848-1.891-1.891  c0-11.484,4.472-22.281,12.588-30.397c8.139-8.12,18.949-12.591,30.441-12.591h31.108c4.329,0,7.837-3.508,7.837-7.837V185.187  c0-41.826,10.923-84.388,29.972-116.77c20.005-34.011,46.81-52.743,75.479-52.743c19.499,0,35.129,4.989,45.202,14.431  c8.893,8.336,13.594,20.177,13.594,34.241c0,15.963-7.84,30.912-20.984,40.032C312.229,105.531,297.376,115.347,283.498,137.4z"/>
<path d="M199.098,214.661c-4.329,0-7.837,3.508-7.837,7.837v54.923c0,4.329,3.508,7.837,7.837,7.837  c4.329,0,7.837-3.508,7.837-7.837v-54.923C206.935,218.168,203.427,214.661,199.098,214.661z"/>
<circle cx="277.326" cy="44.561" r="7.837"/>
<g>
</g>
<g>
</g>
<g>
</g>
<g>
</g>
<g>
</g>
<g>
</g>
<g>
</g>
<g>
</g>
<g>
</g>
<g>
</g>
<g>
</g>
<g>
</g>
<g>
</g>
<g>
</g>
<g>
</g>
</svg>
